<!-- Placeholder for Intensive Hydration Hair Mask product image -->
<svg width="400" height="400" viewBox="0 0 400 400" xmlns="http://www.w3.org/2000/svg">
  <defs>
    <linearGradient id="bg7" x1="0%" y1="0%" x2="100%" y2="100%">
      <stop offset="0%" style="stop-color:#E6F3FF;stop-opacity:1" />
      <stop offset="100%" style="stop-color:#B3D9FF;stop-opacity:1" />
    </linearGradient>
    <linearGradient id="jar7" x1="0%" y1="0%" x2="100%" y2="100%">
      <stop offset="0%" style="stop-color:#00BFFF;stop-opacity:1" />
      <stop offset="100%" style="stop-color:#0080FF;stop-opacity:1" />
    </linearGradient>
  </defs>
  
  <!-- Background -->
  <rect width="400" height="400" fill="url(#bg7)"/>
  
  <!-- Jar -->
  <rect x="140" y="120" width="120" height="160" rx="15" fill="url(#jar7)"/>
  
  <!-- Lid -->
  <ellipse cx="200" cy="120" rx="60" ry="15" fill="#FFD700"/>
  <ellipse cx="200" cy="110" rx="60" ry="15" fill="#FFF8DC"/>
  
  <!-- Label area -->
  <rect x="150" y="150" width="100" height="110" rx="5" fill="#FFFFFF" opacity="0.95"/>
  
  <!-- Brand text -->
  <text x="200" y="170" text-anchor="middle" font-family="serif" font-size="11" font-weight="bold" fill="#00BFFF">HYDRA CARE</text>
  <text x="200" y="187" text-anchor="middle" font-family="sans-serif" font-size="10" fill="#0080FF">MÁSCARA</text>
  <text x="200" y="202" text-anchor="middle" font-family="sans-serif" font-size="9" fill="#0080FF">HIDRATAÇÃO</text>
  <text x="200" y="215" text-anchor="middle" font-family="sans-serif" font-size="8" fill="#4A4A4A">INTENSIVA</text>
  
  <!-- Water drops -->
  <ellipse cx="180" cy="230" rx="4" ry="6" fill="#00BFFF" opacity="0.7"/>
  <ellipse cx="200" cy="225" rx="5" ry="7" fill="#00BFFF" opacity="0.7"/>
  <ellipse cx="220" cy="230" rx="4" ry="6" fill="#00BFFF" opacity="0.7"/>
  
  <!-- Nutrition badge -->
  <rect x="160" y="240" width="80" height="12" rx="6" fill="#00BFFF" opacity="0.8"/>
  <text x="200" y="248" text-anchor="middle" font-family="sans-serif" font-size="6" fill="white">NUTRIÇÃO PROFUNDA</text>
  
  <!-- Volume -->
  <text x="200" y="305" text-anchor="middle" font-family="sans-serif" font-size="9" fill="#666">300g</text>
  
  <!-- Shine effect -->
  <rect x="155" y="130" width="15" height="130" rx="7" fill="white" opacity="0.4"/>
</svg>