<!-- Placeholder for Cadiveu Brasil Cacau Progressive Hair Treatment product image -->
<svg width="400" height="400" viewBox="0 0 400 400" xmlns="http://www.w3.org/2000/svg">
  <defs>
    <linearGradient id="bg3" x1="0%" y1="0%" x2="100%" y2="100%">
      <stop offset="0%" style="stop-color:#D2691E;stop-opacity:1" />
      <stop offset="100%" style="stop-color:#F4A460;stop-opacity:1" />
    </linearGradient>
    <linearGradient id="bottle3" x1="0%" y1="0%" x2="100%" y2="100%">
      <stop offset="0%" style="stop-color:#8B4513;stop-opacity:1" />
      <stop offset="100%" style="stop-color:#654321;stop-opacity:1" />
    </linearGradient>
  </defs>
  
  <!-- Background -->
  <rect width="400" height="400" fill="url(#bg3)"/>
  
  <!-- Bottle -->
  <rect x="140" y="80" width="120" height="240" rx="15" fill="url(#bottle3)"/>
  
  <!-- Cap -->
  <rect x="150" y="60" width="100" height="30" rx="5" fill="#FFD700"/>
  
  <!-- Label area -->
  <rect x="150" y="120" width="100" height="140" rx="5" fill="#FFFFFF" opacity="0.95"/>
  
  <!-- Brand text -->
  <text x="200" y="145" text-anchor="middle" font-family="serif" font-size="12" font-weight="bold" fill="#8B4513">CADIVEU</text>
  <text x="200" y="162" text-anchor="middle" font-family="sans-serif" font-size="10" font-weight="bold" fill="#D2691E">BRASIL CACAU</text>
  <text x="200" y="177" text-anchor="middle" font-family="sans-serif" font-size="8" fill="#4A4A4A">ANTI FRIZZ</text>
  
  <!-- Brazil flag colors accent -->
  <rect x="170" y="185" width="60" height="3" fill="#009739"/>
  <rect x="170" y="188" width="60" height="3" fill="#FEDD00"/>
  <rect x="170" y="191" width="60" height="3" fill="#012169"/>
  
  <!-- Cacau bean icon -->
  <ellipse cx="200" cy="210" rx="12" ry="8" fill="#8B4513"/>
  <text x="200" y="215" text-anchor="middle" font-family="serif" font-size="8" fill="#D2691E">🍫</text>
  
  <!-- Professional badge -->
  <rect x="160" y="230" width="80" height="15" rx="7" fill="#8B4513" opacity="0.8"/>
  <text x="200" y="240" text-anchor="middle" font-family="sans-serif" font-size="6" fill="white">PROFISSIONAL</text>
  
  <!-- Volume -->
  <text x="200" y="255" text-anchor="middle" font-family="sans-serif" font-size="9" fill="#666">500ml</text>
  
  <!-- Shine effect -->
  <rect x="155" y="90" width="15" height="180" rx="7" fill="white" opacity="0.3"/>
</svg>