<!-- Placeholder for Prohall Select One Progressive Hair Treatment product image -->
<svg width="400" height="400" viewBox="0 0 400 400" xmlns="http://www.w3.org/2000/svg">
  <defs>
    <linearGradient id="bg2" x1="0%" y1="0%" x2="100%" y2="100%">
      <stop offset="0%" style="stop-color:#E6E6FA;stop-opacity:1" />
      <stop offset="100%" style="stop-color:#DDA0DD;stop-opacity:1" />
    </linearGradient>
    <linearGradient id="bottle2" x1="0%" y1="0%" x2="100%" y2="100%">
      <stop offset="0%" style="stop-color:#9370DB;stop-opacity:1" />
      <stop offset="100%" style="stop-color:#663399;stop-opacity:1" />
    </linearGradient>
  </defs>
  
  <!-- Background -->
  <rect width="400" height="400" fill="url(#bg2)"/>
  
  <!-- Bottle -->
  <rect x="140" y="80" width="120" height="240" rx="15" fill="url(#bottle2)"/>
  
  <!-- Cap -->
  <rect x="150" y="60" width="100" height="30" rx="5" fill="#FFD700"/>
  
  <!-- Label area -->
  <rect x="150" y="120" width="100" height="140" rx="5" fill="#FFFFFF" opacity="0.95"/>
  
  <!-- Brand text -->
  <text x="200" y="145" text-anchor="middle" font-family="serif" font-size="13" font-weight="bold" fill="#9370DB">PROHALL</text>
  <text x="200" y="165" text-anchor="middle" font-family="sans-serif" font-size="11" font-weight="bold" fill="#663399">SELECT ONE</text>
  <text x="200" y="180" text-anchor="middle" font-family="sans-serif" font-size="8" fill="#4A4A4A">PASSO ÚNICO</text>
  
  <!-- Star icon -->
  <polygon points="200,190 205,200 216,200 207,207 211,218 200,212 189,218 193,207 184,200 195,200" fill="#FFD700"/>
  
  <!-- Technology badge -->
  <rect x="160" y="225" width="80" height="20" rx="10" fill="#9370DB" opacity="0.8"/>
  <text x="200" y="237" text-anchor="middle" font-family="sans-serif" font-size="7" fill="white">LUMINI SYSTEM</text>
  
  <!-- Volume -->
  <text x="200" y="255" text-anchor="middle" font-family="sans-serif" font-size="9" fill="#666">1L</text>
  
  <!-- Shine effect -->
  <rect x="155" y="90" width="15" height="180" rx="7" fill="white" opacity="0.4"/>
</svg>