<!-- Placeholder for Argan Oil Hair Repair product image -->
<svg width="400" height="400" viewBox="0 0 400 400" xmlns="http://www.w3.org/2000/svg">
  <defs>
    <linearGradient id="bg8" x1="0%" y1="0%" x2="100%" y2="100%">
      <stop offset="0%" style="stop-color:#DEB887;stop-opacity:1" />
      <stop offset="100%" style="stop-color:#F4A460;stop-opacity:1" />
    </linearGradient>
    <linearGradient id="bottle8" x1="0%" y1="0%" x2="100%" y2="100%">
      <stop offset="0%" style="stop-color:#8B4513;stop-opacity:0.9" />
      <stop offset="100%" style="stop-color:#A0522D;stop-opacity:0.9" />
    </linearGradient>
  </defs>
  
  <!-- Background -->
  <rect width="400" height="400" fill="url(#bg8)"/>
  
  <!-- Bottle -->
  <rect x="150" y="80" width="100" height="240" rx="12" fill="url(#bottle8)"/>
  
  <!-- Dropper cap -->
  <rect x="175" y="65" width="50" height="20" rx="3" fill="#FFD700"/>
  <rect x="195" y="50" width="10" height="20" rx="2" fill="#8B4513"/>
  
  <!-- Label area -->
  <rect x="160" y="120" width="80" height="140" rx="5" fill="#FFFFFF" opacity="0.95"/>
  
  <!-- Brand text -->
  <text x="200" y="140" text-anchor="middle" font-family="serif" font-size="11" font-weight="bold" fill="#8B4513">ARGAN</text>
  <text x="200" y="155" text-anchor="middle" font-family="sans-serif" font-size="10" fill="#A0522D">ÓLEO</text>
  <text x="200" y="170" text-anchor="middle" font-family="sans-serif" font-size="9" fill="#8B4513">REPARADOR</text>
  
  <!-- Argan fruit illustration -->
  <circle cx="200" cy="190" r="12" fill="#DEB887" opacity="0.8"/>
  <circle cx="200" cy="190" r="8" fill="#8B4513" opacity="0.6"/>
  <text x="200" y="196" text-anchor="middle" font-family="serif" font-size="12" fill="#DEB887">🌰</text>
  
  <!-- Oil drops -->
  <ellipse cx="185" cy="210" rx="2" ry="3" fill="#FFD700" opacity="0.8"/>
  <ellipse cx="200" cy="205" rx="2.5" ry="4" fill="#FFD700" opacity="0.8"/>
  <ellipse cx="215" cy="210" rx="2" ry="3" fill="#FFD700" opacity="0.8"/>
  
  <!-- Pure badge -->
  <rect x="170" y="225" width="60" height="12" rx="6" fill="#8B4513" opacity="0.9"/>
  <text x="200" y="233" text-anchor="middle" font-family="sans-serif" font-size="6" fill="white">100% PURO</text>
  
  <!-- Repair badge -->
  <rect x="165" y="240" width="70" height="12" rx="6" fill="#DEB887" opacity="0.9"/>
  <text x="200" y="248" text-anchor="middle" font-family="sans-serif" font-size="6" fill="#8B4513">REPARAÇÃO</text>
  
  <!-- Volume -->
  <text x="200" y="265" text-anchor="middle" font-family="sans-serif" font-size="8" fill="#666">60ml</text>
  
  <!-- Shine effect -->
  <rect x="165" y="90" width="10" height="180" rx="5" fill="white" opacity="0.3"/>
</svg>