<!-- Placeholder for Let Me Be Protein Smoothing Progressive Hair Treatment product image -->
<svg width="400" height="400" viewBox="0 0 400 400" xmlns="http://www.w3.org/2000/svg">
  <defs>
    <linearGradient id="bg4" x1="0%" y1="0%" x2="100%" y2="100%">
      <stop offset="0%" style="stop-color:#FFB6C1;stop-opacity:1" />
      <stop offset="100%" style="stop-color:#FFC0CB;stop-opacity:1" />
    </linearGradient>
    <linearGradient id="bottle4" x1="0%" y1="0%" x2="100%" y2="100%">
      <stop offset="0%" style="stop-color:#FF1493;stop-opacity:1" />
      <stop offset="100%" style="stop-color:#DC143C;stop-opacity:1" />
    </linearGradient>
  </defs>
  
  <!-- Background -->
  <rect width="400" height="400" fill="url(#bg4)"/>
  
  <!-- Bottle -->
  <rect x="140" y="80" width="120" height="240" rx="15" fill="url(#bottle4)"/>
  
  <!-- Cap -->
  <rect x="150" y="60" width="100" height="30" rx="5" fill="#FFD700"/>
  
  <!-- Label area -->
  <rect x="150" y="120" width="100" height="140" rx="5" fill="#FFFFFF" opacity="0.95"/>
  
  <!-- Brand text -->
  <text x="200" y="140" text-anchor="middle" font-family="sans-serif" font-size="11" font-weight="bold" fill="#FF1493">LET ME BE</text>
  <text x="200" y="157" text-anchor="middle" font-family="sans-serif" font-size="9" font-weight="bold" fill="#DC143C">PROTEIN</text>
  <text x="200" y="172" text-anchor="middle" font-family="sans-serif" font-size="9" fill="#DC143C">SMOOTHING</text>
  <text x="200" y="185" text-anchor="middle" font-family="sans-serif" font-size="7" fill="#4A4A4A">PASSO ÚNICO</text>
  
  <!-- Protein molecule icon -->
  <circle cx="190" cy="205" r="4" fill="#FF1493"/>
  <circle cx="200" cy="200" r="5" fill="#FF1493"/>
  <circle cx="210" cy="205" r="4" fill="#FF1493"/>
  <line x1="194" y1="205" x2="196" y2="200" stroke="#DC143C" stroke-width="2"/>
  <line x1="204" y1="200" x2="206" y2="205" stroke="#DC143C" stroke-width="2"/>
  
  <!-- Organic badge -->
  <rect x="160" y="220" width="80" height="15" rx="7" fill="#32CD32" opacity="0.8"/>
  <text x="200" y="230" text-anchor="middle" font-family="sans-serif" font-size="6" fill="white">SEM FORMOL</text>
  
  <!-- One step badge -->
  <circle cx="200" cy="245" r="12" fill="#FFD700"/>
  <text x="200" y="250" text-anchor="middle" font-family="sans-serif" font-size="8" font-weight="bold" fill="#FF1493">1</text>
  
  <!-- Shine effect -->
  <rect x="155" y="90" width="15" height="180" rx="7" fill="white" opacity="0.4"/>
</svg>