<!-- Placeholder for Forever Liss Zero Progressive Hair Treatment product image -->
<svg width="400" height="400" viewBox="0 0 400 400" xmlns="http://www.w3.org/2000/svg">
  <defs>
    <linearGradient id="bg5" x1="0%" y1="0%" x2="100%" y2="100%">
      <stop offset="0%" style="stop-color:#98FB98;stop-opacity:1" />
      <stop offset="100%" style="stop-color:#90EE90;stop-opacity:1" />
    </linearGradient>
    <linearGradient id="bottle5" x1="0%" y1="0%" x2="100%" y2="100%">
      <stop offset="0%" style="stop-color:#228B22;stop-opacity:1" />
      <stop offset="100%" style="stop-color:#006400;stop-opacity:1" />
    </linearGradient>
  </defs>
  
  <!-- Background -->
  <rect width="400" height="400" fill="url(#bg5)"/>
  
  <!-- Bottle -->
  <rect x="140" y="80" width="120" height="240" rx="15" fill="url(#bottle5)"/>
  
  <!-- Cap -->
  <rect x="150" y="60" width="100" height="30" rx="5" fill="#FFD700"/>
  
  <!-- Label area -->
  <rect x="150" y="120" width="100" height="140" rx="5" fill="#FFFFFF" opacity="0.95"/>
  
  <!-- Brand text -->
  <text x="200" y="140" text-anchor="middle" font-family="serif" font-size="11" font-weight="bold" fill="#228B22">FOREVER LISS</text>
  <text x="200" y="158" text-anchor="middle" font-family="sans-serif" font-size="16" font-weight="bold" fill="#006400">ZERO</text>
  <text x="200" y="175" text-anchor="middle" font-family="sans-serif" font-size="8" fill="#4A4A4A">SEM FORMOL</text>
  
  <!-- Zero symbol -->
  <circle cx="200" cy="195" r="15" fill="none" stroke="#228B22" stroke-width="3"/>
  <line x1="190" y1="205" x2="210" y2="185" stroke="#228B22" stroke-width="2"/>
  
  <!-- Argan oil badge -->
  <rect x="155" y="215" width="90" height="12" rx="6" fill="#DEB887" opacity="0.8"/>
  <text x="200" y="223" text-anchor="middle" font-family="sans-serif" font-size="6" fill="#8B4513">ÓLEO DE ARGAN</text>
  
  <!-- Keratin badge -->
  <rect x="165" y="230" width="70" height="12" rx="6" fill="#228B22" opacity="0.8"/>
  <text x="200" y="238" text-anchor="middle" font-family="sans-serif" font-size="6" fill="white">QUERATINA</text>
  
  <!-- Volume -->
  <text x="200" y="255" text-anchor="middle" font-family="sans-serif" font-size="9" fill="#666">1L</text>
  
  <!-- Shine effect -->
  <rect x="155" y="90" width="15" height="180" rx="7" fill="white" opacity="0.3"/>
</svg>